<?xml version="1.0" encoding="utf-8"?>
<!-- Generator: Adobe Illustrator 16.0.4, SVG Export Plug-In . SVG Version: 6.00 Build 0)  -->
<!DOCTYPE svg PUBLIC "-//W3C//DTD SVG 1.1//EN" "http://www.w3.org/Graphics/SVG/1.1/DTD/svg11.dtd">
<svg version="1.1" id="Layer_1" xmlns="http://www.w3.org/2000/svg" xmlns:xlink="http://www.w3.org/1999/xlink" x="0px" y="0px"
	 width="200px" height="200px" viewBox="0 0 200 200" enable-background="new 0 0 200 200" xml:space="preserve">
<g>
	<g id="XMLID_89_">
		<polygon fill="#BEE7FA" points="101.844,28.16 118.609,29.815 128.406,51.331 104.657,51.732 		"/>
		<polygon fill="#51C0C4" points="108.196,8.319 201.064,105.103 197.006,135.078 128.406,51.331 118.609,29.815 		"/>
		
			<linearGradient id="SVGID_1_" gradientUnits="userSpaceOnUse" x1="-91.4668" y1="378.877" x2="-38.8413" y2="378.877" gradientTransform="matrix(0.7961 -0.7527 -0.6877 -0.7273 385.0795 239.2098)">
			<stop  offset="0" style="stop-color:#90D8F7"/>
			<stop  offset="1" style="stop-color:#51C0C4"/>
		</linearGradient>
		<polygon fill="url(#SVGID_1_)" points="21.471,0.518 108.196,8.319 118.609,29.815 101.844,28.16 		"/>
		
			<linearGradient id="SVGID_2_" gradientUnits="userSpaceOnUse" x1="-53.6348" y1="306.9482" x2="-134.7437" y2="218.7865" gradientTransform="matrix(0.7961 -0.7527 -0.6877 -0.7273 385.0795 239.2098)">
			<stop  offset="0" style="stop-color:#90D8F7"/>
			<stop  offset="1" style="stop-color:#51C0C4"/>
		</linearGradient>
		<polygon fill="url(#SVGID_2_)" points="128.406,51.331 197.006,135.078 142.882,179.935 61.865,95.502 104.657,51.732 		"/>
		<path fill="#42A89D" d="M21.471,0.518l80.372,27.644l2.814,23.572L61.865,95.502L32.703,82.541l-0.118-0.909
			c-0.049-0.295-0.092-0.659-0.149-1.092l-0.044-0.33C30.647,67.054,22.086,2.711,21.478,0.561L21.471,0.518z"/>
		<polygon fill="#144445" points="197.006,135.078 198.534,200.518 142.882,179.935 		"/>
		<polygon fill="#1A647B" points="21.471,0.518 21.478,0.561 32.39,80.21 32.435,80.54 32.584,81.632 32.703,82.541 1.064,90.859 
			11.305,14.439 		"/>
		<polygon fill="#0C333C" points="142.882,179.935 198.534,200.518 83.496,176.759 		"/>
		
			<linearGradient id="SVGID_3_" gradientUnits="userSpaceOnUse" x1="-161.6538" y1="290.2695" x2="-123.458" y2="290.2695" gradientTransform="matrix(0.7961 -0.7527 -0.6877 -0.7273 385.0795 239.2098)">
			<stop  offset="0" style="stop-color:#1A647B"/>
			<stop  offset="1" style="stop-color:#0C333C"/>
		</linearGradient>
		<polygon fill="url(#SVGID_3_)" points="61.865,95.502 142.882,179.935 83.496,176.759 1.064,90.859 32.703,82.541 		"/>
	</g>
</g>
</svg>
