<?xml version="1.0" encoding="utf-8"?>
<!-- Generator: Adobe Illustrator 16.0.4, SVG Export Plug-In . SVG Version: 6.00 Build 0)  -->
<!DOCTYPE svg PUBLIC "-//W3C//DTD SVG 1.1//EN" "http://www.w3.org/Graphics/SVG/1.1/DTD/svg11.dtd">
<svg version="1.1" id="Layer_1" xmlns="http://www.w3.org/2000/svg" xmlns:xlink="http://www.w3.org/1999/xlink" x="0px" y="0px"
	 width="200px" height="200px" viewBox="0 0 200 200" enable-background="new 0 0 200 200" xml:space="preserve">
<g>
	<g id="XMLID_100_">
		<g>
			<polygon fill="#8E1D56" points="177.893,93.76 200,169.327 177.893,136.362 			"/>
			
				<linearGradient id="SVGID_1_" gradientUnits="userSpaceOnUse" x1="349.4912" y1="-255.2324" x2="406" y2="-255.2324" gradientTransform="matrix(1 0 0 -1 -206 -95)">
				<stop  offset="0" style="stop-color:#8E1D56"/>
				<stop  offset="1" style="stop-color:#270C3D"/>
			</linearGradient>
			<polygon fill="url(#SVGID_1_)" points="177.893,136.362 200,169.327 143.491,184.103 			"/>
			<polygon fill="#2F1446" points="200,169.327 138.117,200 143.491,184.103 			"/>
			<polygon fill="#DB78AF" points="177.893,93.76 177.893,136.362 135.862,106.942 121.071,73.866 94.121,66.282 69.058,0 
				161.436,37.51 			"/>
			<polygon fill="#AE4B81" points="177.893,136.362 143.491,184.103 86.092,159.1 74.434,140.922 99.995,81.829 135.862,106.942 			
				"/>
			<polygon fill="#954372" points="143.491,184.103 138.117,200 50.115,144.215 74.434,140.922 86.092,159.1 			"/>
			<polygon fill="#571448" points="138.117,200 110.311,200 24.207,147.731 50.115,144.215 			"/>
			<polygon fill="#E8B0D0" points="121.071,73.866 135.862,106.942 99.995,81.829 94.121,66.282 			"/>
			<polygon fill="#571448" points="94.121,66.282 99.995,81.829 74.434,140.922 50.115,144.215 0,39.775 			"/>
			
				<linearGradient id="SVGID_2_" gradientUnits="userSpaceOnUse" x1="206" y1="-128.1411" x2="300.1211" y2="-128.1411" gradientTransform="matrix(1 0 0 -1 -206 -95)">
				<stop  offset="0" style="stop-color:#C13D84"/>
				<stop  offset="0.2164" style="stop-color:#9B3274"/>
				<stop  offset="0.5838" style="stop-color:#61225B"/>
				<stop  offset="0.8556" style="stop-color:#3D184C"/>
				<stop  offset="1" style="stop-color:#2F1446"/>
			</linearGradient>
			<polygon fill="url(#SVGID_2_)" points="69.058,0 94.121,66.282 0,39.775 			"/>
			
				<linearGradient id="SVGID_3_" gradientUnits="userSpaceOnUse" x1="206" y1="-188.7529" x2="256.1152" y2="-188.7529" gradientTransform="matrix(1 0 0 -1 -206 -95)">
				<stop  offset="0" style="stop-color:#C13D84"/>
				<stop  offset="0.2164" style="stop-color:#9B3274"/>
				<stop  offset="0.5838" style="stop-color:#61225B"/>
				<stop  offset="0.8556" style="stop-color:#3D184C"/>
				<stop  offset="1" style="stop-color:#2F1446"/>
			</linearGradient>
			<polygon fill="url(#SVGID_3_)" points="0,39.775 50.115,144.215 24.207,147.731 			"/>
		</g>
	</g>
</g>
</svg>
