<?xml version="1.0" encoding="utf-8"?>
<!-- Generator: Adobe Illustrator 16.0.4, SVG Export Plug-In . SVG Version: 6.00 Build 0)  -->
<!DOCTYPE svg PUBLIC "-//W3C//DTD SVG 1.1//EN" "http://www.w3.org/Graphics/SVG/1.1/DTD/svg11.dtd">
<svg version="1.1" id="Layer_1" xmlns="http://www.w3.org/2000/svg" xmlns:xlink="http://www.w3.org/1999/xlink" x="0px" y="0px"
	 width="200px" height="200px" viewBox="0 0 200 200" enable-background="new 0 0 200 200" xml:space="preserve">
<g>
	<g id="XMLID_90_">
		
			<linearGradient id="SVGID_1_" gradientUnits="userSpaceOnUse" x1="352.8057" y1="-242.2324" x2="406.1387" y2="-242.2324" gradientTransform="matrix(1 0 0 -1 -206 -95)">
			<stop  offset="0" style="stop-color:#C13D84"/>
			<stop  offset="0.0952" style="stop-color:#B8397E"/>
			<stop  offset="0.6785" style="stop-color:#84225C"/>
			<stop  offset="0.9643" style="stop-color:#70194F"/>
		</linearGradient>
		<polygon fill="url(#SVGID_1_)" points="200.139,162.455 200.139,169.39 186.181,172.812 146.806,145.521 146.806,121.653 		"/>
		<polygon fill="#70194F" points="200.139,151.673 200.139,162.455 146.806,121.653 146.806,108.176 		"/>
		<polygon fill="#E8B0D0" points="200.139,142.054 200.139,151.673 146.806,108.176 156.559,103.937 		"/>
		
			<linearGradient id="SVGID_2_" gradientUnits="userSpaceOnUse" x1="362.5586" y1="-214.3267" x2="406.1387" y2="-214.3267" gradientTransform="matrix(1 0 0 -1 -206 -95)">
			<stop  offset="0" style="stop-color:#2F1446"/>
			<stop  offset="0.2978" style="stop-color:#241135"/>
			<stop  offset="0.6425" style="stop-color:#1C102A"/>
			<stop  offset="1" style="stop-color:#190F26"/>
		</linearGradient>
		<polygon fill="url(#SVGID_2_)" points="200.139,122.996 200.139,142.054 156.559,103.937 173.466,96.6 199.848,122.996 		"/>
		<polygon fill="#DB78AF" points="200.139,94.699 200.139,122.996 199.848,122.996 173.466,96.6 194.023,87.686 		"/>
		<polygon fill="#E8B0D0" points="138.227,23.677 194.023,87.686 173.466,96.6 156.559,103.937 146.806,108.176 114.417,82.384 
			90.605,19.247 95.38,0 		"/>
		<polygon fill="#8E1D56" points="189.017,174.778 136.956,200 146.806,182.475 186.181,172.812 		"/>
		<polygon fill="#70194F" points="186.181,172.812 146.806,182.475 146.806,178.628 146.806,167.073 146.806,145.521 		"/>
		<path fill="#E8B0D0" d="M146.806,167.073v11.555c0,0-81.905-96.244-84.768-96.244h10.486L146.806,167.073z"/>
		<polygon fill="#E796C0" points="146.806,145.521 146.806,167.073 72.524,82.384 82.997,82.384 95.38,82.384 114.417,82.384 
			146.806,108.176 146.806,121.653 		"/>
		<path fill="#E796C0" d="M62.038,82.384c2.863,0,84.768,96.244,84.768,96.244v3.847L136.956,200H34.423l0.691-17.504l3.113-78.56
			l5.714-9.238l7.624-12.314H62.038z"/>
		<polygon fill="#AE4B81" points="90.605,19.247 114.417,82.384 95.38,82.384 73.23,47.354 		"/>
		
			<linearGradient id="SVGID_3_" gradientUnits="userSpaceOnUse" x1="245.9561" y1="-142.3496" x2="301.3809" y2="-142.3496" gradientTransform="matrix(1 0 0 -1 -206 -95)">
			<stop  offset="0" style="stop-color:#C13D84"/>
			<stop  offset="0.2164" style="stop-color:#9B3274"/>
			<stop  offset="0.5838" style="stop-color:#61225B"/>
			<stop  offset="0.8556" style="stop-color:#3D184C"/>
			<stop  offset="1" style="stop-color:#2F1446"/>
		</linearGradient>
		<polygon fill="url(#SVGID_3_)" points="95.38,0 90.605,19.247 73.23,47.354 70.381,51.974 51.564,82.384 43.941,94.699 
			39.956,36.573 		"/>
		<polygon fill="#E8B0D0" points="73.23,47.354 95.38,82.384 82.997,82.384 70.381,51.974 		"/>
		<polygon fill="#DB78AF" points="70.381,51.974 82.997,82.384 72.524,82.384 62.038,82.384 51.564,82.384 		"/>
		<polygon fill="#AE4B81" points="39.956,36.573 43.941,94.699 38.227,103.937 23.16,87.686 23.617,47.354 		"/>
		
			<linearGradient id="SVGID_4_" gradientUnits="userSpaceOnUse" x1="206.1387" y1="-217.6709" x2="244.2266" y2="-217.6709" gradientTransform="matrix(1 0 0 -1 -206 -95)">
			<stop  offset="0" style="stop-color:#C13D84"/>
			<stop  offset="0.2164" style="stop-color:#9B3274"/>
			<stop  offset="0.5838" style="stop-color:#61225B"/>
			<stop  offset="0.8556" style="stop-color:#3D184C"/>
			<stop  offset="1" style="stop-color:#2F1446"/>
		</linearGradient>
		<polygon fill="url(#SVGID_4_)" points="23.16,87.686 38.227,103.937 35.113,182.496 34.423,182.475 0.139,167.073 0.139,62.845 		
			"/>
		<polygon fill="#452135" points="35.113,182.496 34.423,200 0.139,167.073 34.423,182.475 		"/>
		<polygon fill="#DB78AF" points="23.617,47.354 23.16,87.686 0.139,62.845 		"/>
	</g>
</g>
</svg>
