<?xml version="1.0" encoding="utf-8"?>
<!-- Generator: Adobe Illustrator 16.0.4, SVG Export Plug-In . SVG Version: 6.00 Build 0)  -->
<!DOCTYPE svg PUBLIC "-//W3C//DTD SVG 1.1//EN" "http://www.w3.org/Graphics/SVG/1.1/DTD/svg11.dtd">
<svg version="1.1" id="Layer_1" xmlns="http://www.w3.org/2000/svg" xmlns:xlink="http://www.w3.org/1999/xlink" x="0px" y="0px"
	 width="200px" height="200px" viewBox="0 0 200 200" enable-background="new 0 0 200 200" xml:space="preserve">
<g>
	<g id="XMLID_81_">
		<path fill="#F1F1F2" d="M160.846,102.297v0.008c-2.451,0.868-5.01,1.616-7.451,2.043l-31.109-16.537l-0.355-0.201l3.498-3.593
			L160.846,102.297z"/>
		<polygon fill="#7D77A4" points="189.709,82.842 200,107.169 195.344,115.279 173.715,104.677 173.715,96.46 		"/>
		<polygon fill="#3B2A57" points="195.344,115.279 184.57,134.084 184.559,134.084 152.572,151.145 149.062,132.078 
			150.971,128.473 153.395,123.877 158.285,114.628 173.715,104.677 		"/>
		<polygon fill="#E8B0D0" points="194.285,0 190.568,67.308 165.137,55.365 165.137,39.367 184.57,26.766 184.57,20.331 
			159.422,3.465 		"/>
		<polygon fill="#E8B0D0" points="190.568,67.308 190.076,76.235 158.285,58.007 165.137,55.365 		"/>
		<polygon fill="#2B1220" points="190.076,76.235 189.709,82.842 150.971,60.813 158.285,58.007 		"/>
		<path fill="#3F4981" d="M189.709,82.842L173.715,96.46c0,0-5.99,3.406-12.869,5.845v-0.008l-35.418-18.281l20.857-21.4
			l4.686-1.803L189.709,82.842z"/>
		<polygon fill="#954372" points="184.57,20.331 184.57,26.766 165.137,39.367 144.211,39.367 108.002,22.494 159.422,3.465 		"/>
		<polygon fill="#6B6295" points="152.572,151.145 184.559,134.084 155.43,184.914 144.211,194.007 138.369,195.689 138.18,195.479 
			143.143,187.541 131.715,181.076 		"/>
		<path fill="#584479" d="M173.715,96.46v8.217l-15.43,9.951l-32.857-8.192l-0.139-0.277c7.158-2.058,16.162-2.058,22.705-1.481
			c1.652,0.149,3.49,0.008,5.4-0.329c2.441-0.427,5-1.175,7.451-2.043C167.725,99.866,173.715,96.46,173.715,96.46z"/>
		<polygon fill="#C75293" points="165.137,39.367 165.137,55.365 158.285,58.007 150.971,60.813 146.285,62.616 144.754,45.496 
			144.211,39.367 		"/>
		<path fill="#B7B8D5" d="M158.285,114.628l-4.891,9.249l-38.979-9.249l2.295-3.891c2.096-2.117,5.119-3.591,8.578-4.579
			l0.139,0.277L158.285,114.628z"/>
		<polygon fill="#FFFFFF" points="153.395,123.877 150.971,128.473 111.689,119.254 114.416,114.628 		"/>
		<path fill="#716697" d="M122.285,87.811l31.109,16.537c-1.91,0.337-3.748,0.479-5.4,0.329c-6.543-0.576-15.547-0.576-22.705,1.481
			c-3.459,0.988-6.482,2.462-8.578,4.579c-6.428,6.488-55.563,63.365-55.563,63.365l-8.293-1.377l7.147-21.581l61.929-63.535
			L122.285,87.811z"/>
		<polygon fill="#060A08" points="149.062,132.078 152.572,151.145 131.715,181.076 109.08,194.007 108.783,193.983 
			110.166,183.299 115.426,179.078 147.994,134.092 		"/>
		<polygon fill="#F1F1F2" points="150.971,128.473 149.062,132.078 109.85,122.381 111.689,119.254 		"/>
		<polygon fill="#3F4981" points="149.062,132.078 147.994,134.092 115.426,179.078 110.166,183.299 100.855,190.76 85.761,188.484 
			83.844,177.783 82.281,169.126 109.85,122.381 		"/>
		<polygon fill="#3F3A58" points="52.429,138.731 66.08,123.862 87.57,100.456 144.754,45.496 146.285,62.616 125.428,84.016 
			121.93,87.609 60.001,151.145 52.854,172.726 42.288,170.967 25.246,168.34 		"/>
		<polygon fill="#473D5D" points="144.211,39.367 144.754,45.496 87.57,100.456 87.57,73.316 83.794,72.276 105.719,57.834 
			126.85,50.987 		"/>
		<polygon fill="#8F819F" points="144.211,39.367 126.85,50.987 105.719,57.834 83.794,72.276 61.711,66.185 108.002,22.494 		"/>
		<polygon fill="#39588E" points="143.143,187.541 138.18,195.479 129.037,184.914 131.715,181.076 		"/>
		<polygon fill="#3B2A57" points="129.037,184.914 138.18,195.479 137.982,195.802 131.715,197.613 121.623,200 118.627,199.857 		
			"/>
		<polygon fill="#06090B" points="131.715,181.076 129.037,184.914 118.627,199.857 108.08,199.364 108.783,193.983 109.08,194.007 
					"/>
		<path fill="#060A08" d="M116.711,110.737l-2.295,3.891l-36.643,46.559l4.508,7.939l-11.427,15.788l-9.707-2.917v-7.895
			C61.147,174.103,110.283,117.226,116.711,110.737z"/>
		<polygon fill="#060A08" points="114.416,114.628 111.689,119.254 109.85,122.381 82.281,169.126 77.773,161.187 		"/>
		<polygon fill="#3B2A57" points="110.166,183.299 108.783,193.983 108.08,199.364 99.994,198.983 100.855,190.76 		"/>
		<polygon fill="#120F22" points="100.855,190.76 99.994,198.983 82.281,198.145 85.761,188.484 		"/>
		<polygon fill="#060A08" points="87.57,73.316 87.57,100.456 66.08,123.862 54.782,119.254 67.01,107.363 72.574,101.952 
			77.773,96.895 77.773,91.649 77.773,76.235 83.794,72.276 		"/>
		<polygon fill="#0F1B2A" points="83.844,177.783 85.761,188.484 82.281,198.145 70.854,197.613 		"/>
		<polygon fill="#06090B" points="82.281,169.126 83.844,177.783 70.854,197.613 70.854,184.914 		"/>
		<polygon fill="#70194F" points="83.794,72.276 77.773,76.235 55.513,67.308 61.711,66.185 		"/>
		<polygon fill="#8C85A8" points="77.773,91.649 77.773,96.895 72.574,101.952 44.284,75.269 43.197,74.693 45.905,71.775 		"/>
		<polygon fill="#70194F" points="77.773,76.235 77.773,91.649 45.905,71.775 48.95,68.498 55.513,67.308 		"/>
		<polygon fill="#3F4981" points="44.284,75.269 72.574,101.952 67.01,107.363 66.644,107.146 35.625,90.407 35.625,82.842 
			43.197,74.693 		"/>
		<polygon fill="#3D4380" points="67.01,107.363 54.782,119.254 42.713,130.979 35.625,137.878 25.246,168.34 2.293,164.809 
			0,153.128 10.004,137.878 2.293,131.068 10.004,117.801 10.004,112.114 35.625,90.407 66.644,107.146 		"/>
		<polygon fill="#3B2A57" points="66.08,123.862 52.429,138.731 42.713,130.979 54.782,119.254 		"/>
		<polygon fill="#120F22" points="42.713,130.979 52.429,138.731 25.246,168.34 35.625,137.878 		"/>
	</g>
</g>
</svg>
