<?xml version="1.0" encoding="utf-8"?>
<!-- Generator: Adobe Illustrator 16.0.4, SVG Export Plug-In . SVG Version: 6.00 Build 0)  -->
<!DOCTYPE svg PUBLIC "-//W3C//DTD SVG 1.1//EN" "http://www.w3.org/Graphics/SVG/1.1/DTD/svg11.dtd">
<svg version="1.1" id="Layer_1" xmlns="http://www.w3.org/2000/svg" xmlns:xlink="http://www.w3.org/1999/xlink" x="0px" y="0px"
	 width="200px" height="200px" viewBox="0 0 200 200" enable-background="new 0 0 200 200" xml:space="preserve">
<g>
	<g id="XMLID_101_">
		<polygon fill="#84B1D1" points="161.831,36.337 201.48,96.533 182.526,108.831 156.654,75.708 		"/>
		<polygon fill="#46335F" points="156.495,171.232 96.311,200 101.489,181.072 		"/>
		<polygon fill="#3E4B7A" points="48.889,163.724 96.311,200 1.481,148.262 		"/>
		<polygon fill="#46335F" points="201.48,96.533 180.8,159.621 156.495,171.232 156.654,120.658 182.526,108.831 		"/>
		<polygon fill="#646EAD" points="156.654,75.708 182.526,108.831 156.654,120.658 134.249,100 		"/>
		<polygon fill="#9CDAED" points="96.311,0 156.654,75.708 134.249,100 77.343,100 42.856,76.655 		"/>
		<polygon fill="#84B1D1" points="96.311,0 42.856,76.655 15.273,76.655 1.481,58.673 18.724,35.017 		"/>
		<polygon fill="#639CC7" points="42.856,76.655 77.343,100 54.938,110.411 29.064,96.533 		"/>
		<polygon fill="#9CDAED" points="42.856,76.655 29.064,96.533 15.273,76.655 		"/>
		<polygon fill="#422A59" points="54.938,110.411 48.889,163.724 1.481,148.262 29.064,96.533 		"/>
		<polygon fill="#1A1939" points="101.489,181.072 96.311,200 48.889,163.724 		"/>
		<polygon fill="#646EAD" points="15.273,76.655 29.064,96.533 1.481,148.262 1.481,58.673 		"/>
		<polygon fill="#D7EFF7" points="96.311,0 161.831,36.337 156.654,75.708 		"/>
		<polygon fill="#484A86" points="134.249,100 156.654,120.658 156.495,171.232 101.489,181.072 48.889,163.724 54.938,110.411 
			77.343,100 		"/>
	</g>
</g>
</svg>
