<?xml version="1.0" encoding="utf-8"?>
<!-- Generator: Adobe Illustrator 16.0.4, SVG Export Plug-In . SVG Version: 6.00 Build 0)  -->
<!DOCTYPE svg PUBLIC "-//W3C//DTD SVG 1.1//EN" "http://www.w3.org/Graphics/SVG/1.1/DTD/svg11.dtd">
<svg version="1.1" id="Layer_1" xmlns="http://www.w3.org/2000/svg" xmlns:xlink="http://www.w3.org/1999/xlink" x="0px" y="0px"
	 width="200px" height="200px" viewBox="0 0 200 200" enable-background="new 0 0 200 200" xml:space="preserve">
<g>
	<g id="XMLID_95_">
		
			<linearGradient id="SVGID_1_" gradientUnits="userSpaceOnUse" x1="146.082" y1="-266.1826" x2="218.9102" y2="-266.1826" gradientTransform="matrix(0.7846 -0.62 -0.62 -0.7846 -122.0789 -54.5066)">
			<stop  offset="0" style="stop-color:#1A647B"/>
			<stop  offset="1" style="stop-color:#0C333C"/>
		</linearGradient>
		<polygon fill="url(#SVGID_1_)" points="200,0 186.641,67.498 172.597,82.137 170.538,80.18 173.015,63.75 		"/>
		<polygon fill="#1E817C" points="200,0 173.015,63.75 142.161,78.62 121.757,56.538 129.312,25.724 		"/>
		
			<linearGradient id="SVGID_2_" gradientUnits="userSpaceOnUse" x1="129.25" y1="-222.2822" x2="218.9102" y2="-222.2822" gradientTransform="matrix(0.7846 -0.62 -0.62 -0.7846 -122.0789 -54.5066)">
			<stop  offset="0" style="stop-color:#90D8F7"/>
			<stop  offset="1" style="stop-color:#51C0C4"/>
		</linearGradient>
		<polygon fill="url(#SVGID_2_)" points="200,0 129.312,25.724 109.331,29.871 117.145,14.051 		"/>
		<polygon fill="#154C57" points="173.015,63.75 170.538,80.18 140.8,89.119 142.161,78.62 		"/>
		
			<linearGradient id="SVGID_3_" gradientUnits="userSpaceOnUse" x1="109.5469" y1="-223.9902" x2="147.5" y2="-223.9902" gradientTransform="matrix(0.7846 -0.62 -0.62 -0.7846 -122.0789 -54.5066)">
			<stop  offset="0" style="stop-color:#1A647B"/>
			<stop  offset="1" style="stop-color:#0C333C"/>
		</linearGradient>
		<polygon fill="url(#SVGID_3_)" points="129.312,25.724 121.757,56.538 106.549,58.13 109.331,29.871 		"/>
		<polygon fill="#154C57" points="170.538,80.18 172.597,82.137 87.403,170.875 47.635,176.966 140.8,89.119 		"/>
		<polygon fill="#42A89D" points="117.145,14.051 109.331,29.871 24.783,127.362 20.165,106.851 		"/>
		<polygon fill="#1E817C" points="109.331,29.871 106.549,58.13 28.225,146.372 24.783,127.362 		"/>
		
			<linearGradient id="SVGID_4_" gradientUnits="userSpaceOnUse" x1="-10.3555" y1="-262.5698" x2="124.7852" y2="-262.5698" gradientTransform="matrix(0.7846 -0.62 -0.62 -0.7846 -122.0789 -54.5066)">
			<stop  offset="0" style="stop-color:#154C57"/>
			<stop  offset="0.5847" style="stop-color:#0F3A44"/>
			<stop  offset="1" style="stop-color:#0C333C"/>
		</linearGradient>
		<polygon fill="url(#SVGID_4_)" points="121.757,56.538 142.161,78.62 140.8,89.119 47.635,176.966 28.225,146.372 112.043,71.188 
					"/>
		<polygon fill="#BEE7FA" points="121.757,56.538 112.043,71.188 104.458,70.161 106.549,58.13 		"/>
		<polygon fill="#90D8F7" points="106.549,58.13 104.458,70.161 28.225,146.372 		"/>
		<polygon fill="#80C0DC" points="104.458,70.161 112.043,71.188 28.225,146.372 		"/>
		<polygon fill="#0B1A1B" points="87.403,170.875 78.379,180.283 47.635,176.966 		"/>
		<polygon fill="#90D8F7" points="20.165,106.851 24.783,127.362 0,200 		"/>
		
			<linearGradient id="SVGID_5_" gradientUnits="userSpaceOnUse" x1="-62.0107" y1="-291.9375" x2="11.7095" y2="-291.9375" gradientTransform="matrix(0.7846 -0.62 -0.62 -0.7846 -122.0789 -54.5066)">
			<stop  offset="0" style="stop-color:#154C57"/>
			<stop  offset="0.5847" style="stop-color:#0F3A44"/>
			<stop  offset="1" style="stop-color:#0C333C"/>
		</linearGradient>
		<polygon fill="url(#SVGID_5_)" points="78.379,180.283 0,200 47.635,176.966 		"/>
		<polygon fill="#0C333C" points="24.783,127.362 28.225,146.372 0,200 		"/>
		<polygon fill="#0C333C" points="28.225,146.372 47.635,176.966 0,200 		"/>
	</g>
</g>
</svg>
