<?xml version="1.0" encoding="utf-8"?>
<!-- Generator: Adobe Illustrator 16.0.4, SVG Export Plug-In . SVG Version: 6.00 Build 0)  -->
<!DOCTYPE svg PUBLIC "-//W3C//DTD SVG 1.1//EN" "http://www.w3.org/Graphics/SVG/1.1/DTD/svg11.dtd">
<svg version="1.1" id="Layer_1" xmlns="http://www.w3.org/2000/svg" xmlns:xlink="http://www.w3.org/1999/xlink" x="0px" y="0px"
	 width="200px" height="200px" viewBox="0 0 200 200" enable-background="new 0 0 200 200" xml:space="preserve">
<g id="XMLID_79_">
	<g id="XMLID_80_">
		<polygon fill="#8787BA" points="139.164,-1.137 127.51,39.5 126.43,22.636 		"/>
		<polygon fill="#8787BA" points="200,4.53 186.291,73.137 174.764,54.968 		"/>
		<polygon fill="#422A59" points="200,4.53 174.764,54.968 162.643,62.002 147.035,48.377 149.65,28.812 		"/>
		<polygon fill="#D7EFF7" points="200,4.53 149.65,28.812 127.51,39.5 139.164,-1.137 		"/>
		<polygon fill="#46335F" points="174.764,54.968 186.291,73.137 160.361,77.803 162.643,62.002 		"/>
		<polygon fill="#D7EFF7" points="139.164,-1.137 126.43,22.636 22.548,133.731 10.539,132.511 		"/>
		<polygon fill="#1A1939" points="186.291,73.137 59.057,198.863 41.982,189.659 160.361,77.803 		"/>
		<polygon fill="#646EAD" points="149.65,28.812 147.035,48.377 114.596,67.203 127.51,39.5 		"/>
		<polygon fill="#639CC7" points="147.035,48.377 162.643,62.002 160.361,77.803 41.982,189.659 15.503,158.041 114.596,67.203 		
			"/>
		<polygon fill="#9CDAED" points="126.43,22.636 127.51,39.5 114.596,67.203 15.503,158.041 22.548,133.731 		"/>
		<polygon fill="#646EAD" points="22.548,133.731 15.503,158.041 0,195.993 10.539,132.511 		"/>
		<polygon fill="#1A0E1D" points="41.982,189.659 59.057,198.863 0,195.993 		"/>
		<polygon fill="#46335F" points="15.503,158.041 41.982,189.659 0,195.993 		"/>
	</g>
</g>
</svg>
