<?xml version="1.0" encoding="utf-8"?>
<!-- Generator: Adobe Illustrator 16.0.4, SVG Export Plug-In . SVG Version: 6.00 Build 0)  -->
<!DOCTYPE svg PUBLIC "-//W3C//DTD SVG 1.1//EN" "http://www.w3.org/Graphics/SVG/1.1/DTD/svg11.dtd">
<svg version="1.1" id="Layer_1" xmlns="http://www.w3.org/2000/svg" xmlns:xlink="http://www.w3.org/1999/xlink" x="0px" y="0px"
	 width="200px" height="200px" viewBox="0 0 200 200" enable-background="new 0 0 200 200" xml:space="preserve">
<g id="XMLID_87_">
	<g id="XMLID_88_">
		<polygon fill="#E7E2E8" points="124.538,73.013 115.18,101.861 111.5,98.5 118.085,77.516 		"/>
		<polygon fill="#E7E2E8" points="49.082,54.719 49.082,65.121 37.969,65.121 		"/>
		<polygon fill="#4D4D7F" points="193.226,166.218 198.528,180.297 194.643,189.874 187.827,192.257 190.188,187.663 
			183.529,172.813 		"/>
		<polygon fill="#5F5C94" points="177.404,124.158 193.226,166.218 183.529,172.813 179.086,163.245 177.404,159.631 
			163.81,130.338 		"/>
		<polygon fill="#4E75AF" points="183.529,172.813 190.188,187.663 187.827,192.257 163.81,200.665 155.008,184.456 		"/>
		<polygon fill="#4D4D7F" points="179.086,163.245 183.529,172.813 155.008,184.456 149.634,169.869 		"/>
		<polygon fill="#DDC9D2" points="177.404,159.631 179.086,163.245 149.634,169.869 147.042,162.828 		"/>
		<polygon fill="#626591" points="163.81,130.338 177.404,159.631 147.042,162.828 135.07,130.338 		"/>
		<polygon fill="#D9D2DB" points="177.404,124.158 163.81,130.338 149.634,117.481 143.471,111.891 158.252,113.92 		"/>
		<polygon fill="#CDC5D3" points="149.634,117.481 163.81,130.338 135.07,130.338 131.305,127.684 126.306,124.158 126.306,121.459 
					"/>
		<polygon fill="#4D4D7F" points="155.008,184.456 163.81,200.665 131.147,192.973 127.129,176.646 		"/>
		<polygon fill="#5F5C94" points="149.634,169.869 155.008,184.456 127.129,176.646 123.219,160.718 		"/>
		<polygon fill="#ADBCE0" points="149.634,38.918 149.634,58.462 140.469,104.407 129.67,98.228 135.046,69.552 140.469,40.585 		
			"/>
		<polygon fill="#C3C9DC" points="131.305,8.982 149.634,38.918 140.469,40.585 		"/>
		<polygon fill="#C3C9DC" points="143.471,111.891 149.634,117.481 126.306,121.459 126.306,96.298 		"/>
		<polygon fill="#DDC9D2" points="147.042,162.828 149.634,169.869 123.219,160.718 121.898,155.346 		"/>
		<polygon fill="#C3C9DC" points="135.07,130.338 147.042,162.828 121.898,155.346 120.059,147.861 113.183,135.848 		"/>
		<polygon fill="#D8C8D3" points="131.305,8.982 140.469,40.585 120.059,20.625 117.977,0.665 		"/>
		<polygon fill="#E8E1E9" points="120.059,20.625 140.469,40.585 135.07,40.585 129.67,40.585 103.39,40.585 102.385,37.26 
			101.234,33.41 99.636,28.109 111.778,9.943 117.977,0.665 		"/>
		<polygon fill="#EDEFF8" points="140.469,40.585 135.046,69.552 124.538,73.013 135.07,40.585 		"/>
		<polygon fill="#955B71" points="135.07,40.585 124.538,73.013 118.085,77.516 129.67,40.585 		"/>
		<polygon fill="#E7E2E8" points="135.07,130.338 113.183,135.848 111.5,132.893 112.166,129.957 131.305,127.684 		"/>
		<polygon fill="#4D4D7F" points="135.046,69.552 129.67,98.228 126.306,96.298 117.977,104.407 115.18,101.861 124.538,73.013 		
			"/>
		<polygon fill="#A89CBC" points="129.67,40.585 118.085,77.516 91.308,84.655 90.314,84.61 90.557,81.765 91.308,73.013 
			103.39,40.585 		"/>
		<polygon fill="#E7E2E8" points="129.67,98.228 140.469,104.407 158.252,113.92 143.471,111.891 126.306,96.298 		"/>
		<polygon fill="#ADBCE0" points="126.306,124.158 131.305,127.684 112.166,129.957 117.977,104.407 126.306,96.298 
			126.306,121.459 		"/>
		<polygon fill="#C1BECB" points="117.977,0.665 111.778,9.943 97.118,9.943 109.636,2.749 		"/>
		<polygon fill="#81668E" points="115.18,101.861 117.977,104.407 112.166,129.957 111.5,132.893 117.577,186.422 97.118,121.459 
			102.385,99.723 109.078,96.298 111.5,98.5 		"/>
		<polygon fill="#4D4D7F" points="113.183,135.848 120.059,147.861 121.898,155.346 123.219,160.718 127.129,176.646 
			131.147,192.973 117.977,189.874 117.577,186.422 111.5,132.893 		"/>
		<polygon fill="#C0CAE2" points="111.778,9.943 99.636,28.109 79.928,29.359 85.75,16.467 97.118,9.943 		"/>
		<polygon fill="#D9D2DB" points="101.234,33.41 102.385,37.26 75.4,40.585 74.916,40.458 76.357,37.26 		"/>
		<polygon fill="#955B71" points="102.385,99.723 97.118,121.459 88.789,115.171 87.699,115.116 88.402,106.854 		"/>
		<polygon fill="#E8E1E9" points="99.636,28.109 101.234,33.41 76.357,37.26 79.928,29.359 		"/>
		<polygon fill="#B58A9D" points="91.308,73.013 90.557,81.765 58.973,168.211 56.297,113.142 63.525,84.655 		"/>
		<polygon fill="#C3B3CD" points="90.314,84.61 91.308,84.655 118.085,77.516 111.5,98.5 109.078,96.298 102.385,99.723 
			88.402,106.854 		"/>
		<polygon fill="#81668E" points="90.314,84.61 88.402,106.854 87.699,115.116 81.864,183.206 59.917,187.663 58.973,168.211 
			90.557,81.765 		"/>
		<polygon fill="#575E8C" points="88.789,68.945 91.308,73.013 63.525,84.655 55.244,73.448 56.297,73.013 56.297,47.236 
			81.43,57.012 88.789,68.936 		"/>
		<polygon fill="#4D4D7F" points="88.789,115.171 97.118,121.459 117.577,186.422 117.977,189.874 81.864,183.206 87.699,115.116 		
			"/>
		<polygon fill="#CDC5D3" points="75.4,47.236 81.43,57.012 56.297,47.236 56.297,73.013 55.244,73.448 49.082,65.121 
			49.082,54.719 49.082,47.236 49.082,40.585 		"/>
		<polygon fill="#5F5C94" points="74.916,40.458 75.4,40.585 102.385,37.26 103.39,40.585 88.789,68.936 81.43,57.012 75.4,47.236 
			73.354,43.911 		"/>
		<polygon fill="#C3C9DC" points="75.4,47.236 49.082,40.585 49.082,29.359 55.753,33.41 71.309,40.585 73.354,43.911 		"/>
		<polygon fill="#977599" points="55.244,73.448 63.525,84.655 49.082,124.158 49.082,189.874 30.742,193.599 21.856,188.315 
			25.899,157.402 26.384,153.695 29.108,132.893 29.81,127.512 30.863,119.475 37.969,65.121 49.082,65.121 		"/>
		<polygon fill="#4D4D7F" points="58.973,168.211 59.917,187.663 49.082,189.874 49.082,124.158 56.297,113.142 		"/>
		<polygon fill="#626591" points="49.082,47.236 49.082,54.719 37.969,65.121 21.856,56.803 26.493,52.128 		"/>
		<polygon fill="#D8C8D3" points="49.082,40.585 49.082,47.236 26.493,52.128 49.082,29.359 		"/>
		<polygon fill="#867BA7" points="37.969,65.121 30.863,119.475 13.395,96.298 21.856,56.803 		"/>
		<polygon fill="#CAC9D7" points="13.395,96.298 30.863,119.475 29.81,127.512 11.664,104.407 		"/>
		<polygon fill="#D9D2DB" points="11.664,104.407 29.81,127.512 29.108,132.893 9.629,113.92 		"/>
		<polygon fill="#626591" points="9.629,113.92 29.108,132.893 26.384,153.695 6.106,130.338 		"/>
		<polygon fill="#D9D2DB" points="6.106,130.338 26.384,153.695 25.899,157.402 4.932,135.848 		"/>
		<polygon fill="#4D4D7F" points="4.932,135.848 25.899,157.402 21.856,188.315 1.857,176.42 1.857,168.237 -1.472,165.737 		"/>
	</g>
</g>
</svg>
