<?xml version="1.0" encoding="utf-8"?>
<!-- Generator: Adobe Illustrator 16.0.4, SVG Export Plug-In . SVG Version: 6.00 Build 0)  -->
<!DOCTYPE svg PUBLIC "-//W3C//DTD SVG 1.1//EN" "http://www.w3.org/Graphics/SVG/1.1/DTD/svg11.dtd">
<svg version="1.1" id="Layer_1" xmlns="http://www.w3.org/2000/svg" xmlns:xlink="http://www.w3.org/1999/xlink" x="0px" y="0px"
	 width="200px" height="200px" viewBox="0 0 200 200" enable-background="new 0 0 200 200" xml:space="preserve">
<g id="XMLID_98_">
	<g id="XMLID_99_">
		<polygon fill="#E8B0D0" points="33.864,122.154 34.274,132.571 33.875,132.583 1.969,85.591 		"/>
		<polygon fill="#70194F" points="201.411,139.729 201.969,160.341 181.85,166.621 201.09,127.961 		"/>
		
			<linearGradient id="SVGID_1_" gradientUnits="userSpaceOnUse" x1="62.9385" y1="-35.0923" x2="95.7607" y2="-35.0923" gradientTransform="matrix(1.4336 -0.0397 -0.0275 -0.9928 62.6427 88.46)">
			<stop  offset="0" style="stop-color:#C13D84"/>
			<stop  offset="0.0952" style="stop-color:#B8397E"/>
			<stop  offset="0.6785" style="stop-color:#84225C"/>
			<stop  offset="0.9643" style="stop-color:#70194F"/>
		</linearGradient>
		<polygon fill="url(#SVGID_1_)" points="199.393,65.414 201.09,127.961 181.85,166.621 155.334,174.885 153.835,119.691 
			186.123,70.605 		"/>
		<polygon fill="#E796C0" points="161.131,31.938 199.393,65.414 186.123,70.605 152.856,83.635 132.271,46.975 		"/>
		
			<linearGradient id="SVGID_2_" gradientUnits="userSpaceOnUse" x1="53.0166" y1="-94.0156" x2="95.7236" y2="-94.0156" gradientTransform="matrix(1.4336 -0.0397 -0.0275 -0.9928 62.6427 88.46)">
			<stop  offset="0" style="stop-color:#C13D84"/>
			<stop  offset="0.2164" style="stop-color:#9B3274"/>
			<stop  offset="0.5838" style="stop-color:#61225B"/>
			<stop  offset="0.8556" style="stop-color:#3D184C"/>
			<stop  offset="1" style="stop-color:#2F1446"/>
		</linearGradient>
		<polygon fill="url(#SVGID_2_)" points="201.969,160.341 141.723,197.352 155.334,174.885 181.85,166.621 		"/>
		
			<linearGradient id="SVGID_3_" gradientUnits="userSpaceOnUse" x1="62.959" y1="-9.7231" x2="86.4121" y2="-9.7231" gradientTransform="matrix(1.4336 -0.0397 -0.0275 -0.9928 62.6427 88.46)">
			<stop  offset="0" style="stop-color:#C13D84"/>
			<stop  offset="0.2164" style="stop-color:#9B3274"/>
			<stop  offset="0.5838" style="stop-color:#61225B"/>
			<stop  offset="0.8556" style="stop-color:#3D184C"/>
			<stop  offset="1" style="stop-color:#2F1446"/>
		</linearGradient>
		<polygon fill="url(#SVGID_3_)" points="186.123,70.605 153.835,119.691 152.856,83.635 		"/>
		<polygon fill="#E8B0D0" points="124.333,-0.262 161.131,31.938 132.271,46.975 108.332,4.352 		"/>
		<polygon fill="#DB78AF" points="153.835,119.691 155.334,174.885 115.426,175.613 115.419,175.432 110.26,87.101 152.856,83.635 
					"/>
		
			<linearGradient id="SVGID_4_" gradientUnits="userSpaceOnUse" x1="0.5703" y1="-9.8896" x2="82.5447" y2="52.4109" gradientTransform="matrix(1.4336 -0.0397 -0.0275 -0.9928 62.6427 88.46)">
			<stop  offset="0" style="stop-color:#C13D84"/>
			<stop  offset="0.0952" style="stop-color:#B8397E"/>
			<stop  offset="0.6785" style="stop-color:#84225C"/>
			<stop  offset="0.9643" style="stop-color:#70194F"/>
		</linearGradient>
		<polygon fill="url(#SVGID_4_)" points="132.271,46.975 152.856,83.635 110.26,87.101 82.562,89.364 75.888,55.936 		"/>
		
			<linearGradient id="SVGID_5_" gradientUnits="userSpaceOnUse" x1="-0.3418" y1="-100.311" x2="62.9385" y2="-100.311" gradientTransform="matrix(1.4336 -0.0397 -0.0275 -0.9928 62.6427 88.46)">
			<stop  offset="0" style="stop-color:#2F1446"/>
			<stop  offset="0.2978" style="stop-color:#241135"/>
			<stop  offset="0.6425" style="stop-color:#1C102A"/>
			<stop  offset="1" style="stop-color:#190F26"/>
		</linearGradient>
		<polygon fill="url(#SVGID_5_)" points="155.334,174.885 141.723,197.352 65.228,199.468 75.538,176.534 75.549,176.352 
			115.426,175.613 		"/>
		<polygon fill="#AE4B81" points="108.332,4.352 132.271,46.975 75.888,55.936 67.893,16.018 		"/>
		<polygon fill="#E796C0" points="115.419,175.432 115.426,175.613 75.549,176.352 76.024,170.445 82.562,89.364 110.26,87.101 		
			"/>
		<polygon fill="#DB78AF" points="75.888,55.936 82.562,89.364 40.456,92.797 40.212,83.806 49.912,60.066 		"/>
		<polygon fill="#E7A1C7" points="82.562,89.364 76.024,170.445 34.375,135.147 34.274,132.571 33.864,122.154 33.028,101.304 
			40.456,92.797 		"/>
		
			<linearGradient id="SVGID_6_" gradientUnits="userSpaceOnUse" x1="-32.7319" y1="22.5635" x2="44.3624" y2="80.1127" gradientTransform="matrix(1.4336 -0.0397 -0.0275 -0.9928 62.6427 88.46)">
			<stop  offset="0" style="stop-color:#C13D84"/>
			<stop  offset="0.2164" style="stop-color:#9B3274"/>
			<stop  offset="0.5838" style="stop-color:#61225B"/>
			<stop  offset="0.8556" style="stop-color:#3D184C"/>
			<stop  offset="1" style="stop-color:#2F1446"/>
		</linearGradient>
		<polygon fill="url(#SVGID_6_)" points="67.893,16.018 75.888,55.936 49.912,60.066 		"/>
		<polygon fill="#DB78AF" points="34.375,135.147 76.024,170.445 75.549,176.352 36.053,177.079 		"/>
		<polygon fill="#8E1D56" points="36.053,177.079 75.549,176.352 75.538,176.534 50.929,196.577 36.429,186.271 		"/>
		
			<linearGradient id="SVGID_7_" gradientUnits="userSpaceOnUse" x1="-10.252" y1="-100.4019" x2="7.2871" y2="-100.4019" gradientTransform="matrix(1.4336 -0.0397 -0.0275 -0.9928 62.6427 88.46)">
			<stop  offset="0" style="stop-color:#2F1446"/>
			<stop  offset="0.2978" style="stop-color:#241135"/>
			<stop  offset="0.6425" style="stop-color:#1C102A"/>
			<stop  offset="1" style="stop-color:#190F26"/>
		</linearGradient>
		<polygon fill="url(#SVGID_7_)" points="75.538,176.534 65.228,199.468 55.384,199.738 50.929,196.577 		"/>
		
			<linearGradient id="SVGID_8_" gradientUnits="userSpaceOnUse" x1="-42.2354" y1="34.5103" x2="5.0576" y2="34.5103" gradientTransform="matrix(1.4336 -0.0397 -0.0275 -0.9928 62.6427 88.46)">
			<stop  offset="0" style="stop-color:#C13D84"/>
			<stop  offset="0.2164" style="stop-color:#9B3274"/>
			<stop  offset="0.5838" style="stop-color:#61225B"/>
			<stop  offset="0.8556" style="stop-color:#3D184C"/>
			<stop  offset="1" style="stop-color:#2F1446"/>
		</linearGradient>
		<polygon fill="url(#SVGID_8_)" points="67.893,16.018 49.912,60.066 40.212,83.806 26.786,93.175 1.969,85.591 		"/>
		<polygon fill="#E8B0D0" points="40.212,83.806 40.456,92.797 33.028,101.304 26.786,93.175 		"/>
		
			<linearGradient id="SVGID_9_" gradientUnits="userSpaceOnUse" x1="-42.2607" y1="-46.5674" x2="-20.1602" y2="-46.5674" gradientTransform="matrix(1.4336 -0.0397 -0.0275 -0.9928 62.6427 88.46)">
			<stop  offset="0" style="stop-color:#2F1446"/>
			<stop  offset="0.2978" style="stop-color:#241135"/>
			<stop  offset="0.6425" style="stop-color:#1C102A"/>
			<stop  offset="1" style="stop-color:#190F26"/>
		</linearGradient>
		<polygon fill="url(#SVGID_9_)" points="34.375,135.147 36.053,177.079 36.429,186.271 13.013,169.983 3.746,151.089 1.969,85.591 
			33.875,132.583 34.274,132.571 		"/>
		
			<linearGradient id="SVGID_10_" gradientUnits="userSpaceOnUse" x1="-83.5596" y1="-22.6904" x2="67.6198" y2="1.7651" gradientTransform="matrix(1.4336 -0.0397 -0.0275 -0.9928 62.6427 88.46)">
			<stop  offset="0" style="stop-color:#C13D84"/>
			<stop  offset="0.2164" style="stop-color:#9B3274"/>
			<stop  offset="0.5838" style="stop-color:#61225B"/>
			<stop  offset="0.8556" style="stop-color:#3D184C"/>
			<stop  offset="1" style="stop-color:#2F1446"/>
		</linearGradient>
		<polygon fill="url(#SVGID_10_)" points="33.028,101.304 33.864,122.154 1.969,85.591 26.786,93.175 		"/>
	</g>
</g>
</svg>
