<?xml version="1.0" encoding="utf-8"?>
<!-- Generator: Adobe Illustrator 16.0.4, SVG Export Plug-In . SVG Version: 6.00 Build 0)  -->
<!DOCTYPE svg PUBLIC "-//W3C//DTD SVG 1.1//EN" "http://www.w3.org/Graphics/SVG/1.1/DTD/svg11.dtd">
<svg version="1.1" id="Layer_1" xmlns="http://www.w3.org/2000/svg" xmlns:xlink="http://www.w3.org/1999/xlink" x="0px" y="0px"
	 width="200px" height="200px" viewBox="0 0 200 200" enable-background="new 0 0 200 200" xml:space="preserve">
<g id="XMLID_98_">
	<g id="XMLID_99_">
		<polygon fill="#E8B0D0" points="32.952,122.392 33.35,132.777 32.963,132.789 1.969,85.941 		"/>
		<polygon fill="#70194F" points="195.708,139.914 196.25,160.462 176.706,166.722 195.396,128.182 		"/>
		
			<linearGradient id="SVGID_1_" gradientUnits="userSpaceOnUse" x1="-78.1484" y1="-67.4463" x2="-46.2114" y2="-67.4463" gradientTransform="matrix(1.4336 -0.0397 0.0275 0.9928 263.3457 184.8828)">
			<stop  offset="0" style="stop-color:#C13D84"/>
			<stop  offset="0.0952" style="stop-color:#B8397E"/>
			<stop  offset="0.6785" style="stop-color:#84225C"/>
			<stop  offset="0.9643" style="stop-color:#70194F"/>
		</linearGradient>
		<polygon fill="url(#SVGID_1_)" points="193.747,65.826 195.396,128.182 176.706,166.722 150.948,174.961 149.492,119.938 
			180.858,71.002 		"/>
		<polygon fill="#E796C0" points="156.58,32.453 193.747,65.826 180.858,71.002 148.542,83.991 128.546,47.444 		"/>
		
			<linearGradient id="SVGID_2_" gradientUnits="userSpaceOnUse" x1="-87.7969" y1="-8.6997" x2="-46.2935" y2="-8.6997" gradientTransform="matrix(1.4336 -0.0397 0.0275 0.9928 263.3457 184.8828)">
			<stop  offset="0" style="stop-color:#C13D84"/>
			<stop  offset="0.2164" style="stop-color:#9B3274"/>
			<stop  offset="0.5838" style="stop-color:#61225B"/>
			<stop  offset="0.8556" style="stop-color:#3D184C"/>
			<stop  offset="1" style="stop-color:#2F1446"/>
		</linearGradient>
		<polygon fill="url(#SVGID_2_)" points="196.25,160.462 137.726,197.359 150.948,174.961 176.706,166.722 		"/>
		
			<linearGradient id="SVGID_3_" gradientUnits="userSpaceOnUse" x1="-78.1011" y1="-92.7314" x2="-55.2939" y2="-92.7314" gradientTransform="matrix(1.4336 -0.0397 0.0275 0.9928 263.3457 184.8828)">
			<stop  offset="0" style="stop-color:#C13D84"/>
			<stop  offset="0.2164" style="stop-color:#9B3274"/>
			<stop  offset="0.5838" style="stop-color:#61225B"/>
			<stop  offset="0.8556" style="stop-color:#3D184C"/>
			<stop  offset="1" style="stop-color:#2F1446"/>
		</linearGradient>
		<polygon fill="url(#SVGID_3_)" points="180.858,71.002 149.492,119.938 148.542,83.991 		"/>
		<polygon fill="#E8B0D0" points="120.834,0.352 156.58,32.453 128.546,47.444 105.291,4.951 		"/>
		<polygon fill="#DB78AF" points="149.492,119.938 150.948,174.961 112.181,175.687 112.175,175.506 107.163,87.447 148.542,83.991 
					"/>
		
			<linearGradient id="SVGID_4_" gradientUnits="userSpaceOnUse" x1="-139.0903" y1="-92.9106" x2="-58.4172" y2="-154.2222" gradientTransform="matrix(1.4336 -0.0397 0.0275 0.9928 263.3457 184.8828)">
			<stop  offset="0" style="stop-color:#C13D84"/>
			<stop  offset="0.0952" style="stop-color:#B8397E"/>
			<stop  offset="0.6785" style="stop-color:#84225C"/>
			<stop  offset="0.9643" style="stop-color:#70194F"/>
		</linearGradient>
		<polygon fill="url(#SVGID_4_)" points="128.546,47.444 148.542,83.991 107.163,87.447 80.258,89.703 73.774,56.377 		"/>
		
			<linearGradient id="SVGID_5_" gradientUnits="userSpaceOnUse" x1="-139.6284" y1="-2.3555" x2="-78.1484" y2="-2.3555" gradientTransform="matrix(1.4336 -0.0397 0.0275 0.9928 263.3457 184.8828)">
			<stop  offset="0" style="stop-color:#2F1446"/>
			<stop  offset="0.2978" style="stop-color:#241135"/>
			<stop  offset="0.6425" style="stop-color:#1C102A"/>
			<stop  offset="1" style="stop-color:#190F26"/>
		</linearGradient>
		<polygon fill="url(#SVGID_5_)" points="150.948,174.961 137.726,197.359 63.419,199.469 73.434,176.605 73.445,176.423 
			112.181,175.687 		"/>
		<polygon fill="#AE4B81" points="105.291,4.951 128.546,47.444 73.774,56.377 66.008,16.582 		"/>
		<polygon fill="#E796C0" points="112.175,175.506 112.181,175.687 73.445,176.423 73.906,170.535 80.258,89.703 107.163,87.447 		
			"/>
		<polygon fill="#DB78AF" points="73.774,56.377 80.258,89.703 39.355,93.125 39.118,84.162 48.541,60.495 		"/>
		<polygon fill="#E7A1C7" points="80.258,89.703 73.906,170.535 33.448,135.346 33.35,132.777 32.952,122.392 32.14,101.605 
			39.355,93.125 		"/>
		
			<linearGradient id="SVGID_6_" gradientUnits="userSpaceOnUse" x1="-171.6729" y1="-125.1255" x2="-95.3346" y2="-182.1104" gradientTransform="matrix(1.4336 -0.0397 0.0275 0.9928 263.3457 184.8828)">
			<stop  offset="0" style="stop-color:#C13D84"/>
			<stop  offset="0.2164" style="stop-color:#9B3274"/>
			<stop  offset="0.5838" style="stop-color:#61225B"/>
			<stop  offset="0.8556" style="stop-color:#3D184C"/>
			<stop  offset="1" style="stop-color:#2F1446"/>
		</linearGradient>
		<polygon fill="url(#SVGID_6_)" points="66.008,16.582 73.774,56.377 48.541,60.495 		"/>
		<polygon fill="#DB78AF" points="33.448,135.346 73.906,170.535 73.445,176.423 35.078,177.149 		"/>
		<polygon fill="#8E1D56" points="35.078,177.149 73.445,176.423 73.434,176.605 49.529,196.587 35.444,186.312 		"/>
		
			<linearGradient id="SVGID_7_" gradientUnits="userSpaceOnUse" x1="-149.2539" y1="-2.2617" x2="-132.207" y2="-2.2617" gradientTransform="matrix(1.4336 -0.0397 0.0275 0.9928 263.3457 184.8828)">
			<stop  offset="0" style="stop-color:#2F1446"/>
			<stop  offset="0.2978" style="stop-color:#241135"/>
			<stop  offset="0.6425" style="stop-color:#1C102A"/>
			<stop  offset="1" style="stop-color:#190F26"/>
		</linearGradient>
		<polygon fill="url(#SVGID_7_)" points="73.434,176.605 63.419,199.469 53.857,199.738 49.529,196.587 		"/>
		
			<linearGradient id="SVGID_8_" gradientUnits="userSpaceOnUse" x1="-180.2671" y1="-136.7446" x2="-134.293" y2="-136.7446" gradientTransform="matrix(1.4336 -0.0397 0.0275 0.9928 263.3457 184.8828)">
			<stop  offset="0" style="stop-color:#C13D84"/>
			<stop  offset="0.2164" style="stop-color:#9B3274"/>
			<stop  offset="0.5838" style="stop-color:#61225B"/>
			<stop  offset="0.8556" style="stop-color:#3D184C"/>
			<stop  offset="1" style="stop-color:#2F1446"/>
		</linearGradient>
		<polygon fill="url(#SVGID_8_)" points="66.008,16.582 48.541,60.495 39.118,84.162 26.076,93.502 1.969,85.941 		"/>
		<polygon fill="#E8B0D0" points="39.118,84.162 39.355,93.125 32.14,101.605 26.076,93.502 		"/>
		
			<linearGradient id="SVGID_9_" gradientUnits="userSpaceOnUse" x1="-180.3247" y1="-55.8975" x2="-158.8726" y2="-55.8975" gradientTransform="matrix(1.4336 -0.0397 0.0275 0.9928 263.3457 184.8828)">
			<stop  offset="0" style="stop-color:#2F1446"/>
			<stop  offset="0.2978" style="stop-color:#241135"/>
			<stop  offset="0.6425" style="stop-color:#1C102A"/>
			<stop  offset="1" style="stop-color:#190F26"/>
		</linearGradient>
		<polygon fill="url(#SVGID_9_)" points="33.448,135.346 35.078,177.149 35.444,186.312 12.697,170.075 3.695,151.238 1.969,85.941 
			32.963,132.789 33.35,132.777 		"/>
		
			<linearGradient id="SVGID_10_" gradientUnits="userSpaceOnUse" x1="-220.167" y1="-79.9551" x2="-73.904" y2="-103.6153" gradientTransform="matrix(1.4336 -0.0397 0.0275 0.9928 263.3457 184.8828)">
			<stop  offset="0" style="stop-color:#C13D84"/>
			<stop  offset="0.2164" style="stop-color:#9B3274"/>
			<stop  offset="0.5838" style="stop-color:#61225B"/>
			<stop  offset="0.8556" style="stop-color:#3D184C"/>
			<stop  offset="1" style="stop-color:#2F1446"/>
		</linearGradient>
		<polygon fill="url(#SVGID_10_)" points="32.14,101.605 32.952,122.392 1.969,85.941 26.076,93.502 		"/>
	</g>
</g>
</svg>
