<?xml version="1.0" encoding="utf-8"?>
<!-- Generator: Adobe Illustrator 16.0.4, SVG Export Plug-In . SVG Version: 6.00 Build 0)  -->
<!DOCTYPE svg PUBLIC "-//W3C//DTD SVG 1.1//EN" "http://www.w3.org/Graphics/SVG/1.1/DTD/svg11.dtd">
<svg version="1.1" id="Layer_1" xmlns="http://www.w3.org/2000/svg" xmlns:xlink="http://www.w3.org/1999/xlink" x="0px" y="0px"
	 width="200px" height="200px" viewBox="0 0 200 200" enable-background="new 0 0 200 200" xml:space="preserve">
<g id="XMLID_93_">
	<g id="XMLID_94_">
		<polygon fill="#8E1D56" points="137.278,151.381 111.006,180.467 86.042,200 57.183,196.083 112.359,138.351 		"/>
		<polygon fill="#E8B0D0" points="137.47,151.172 137.278,151.381 112.359,138.351 115.039,135.546 141.355,146.865 		"/>
		
			<linearGradient id="SVGID_1_" gradientUnits="userSpaceOnUse" x1="744.7256" y1="-879.4766" x2="669.8058" y2="-1012.0267" gradientTransform="matrix(0.5988 0.5739 0.6641 -0.6929 344.698 -933.8488)">
			<stop  offset="0" style="stop-color:#C13D84"/>
			<stop  offset="0.2164" style="stop-color:#9B3274"/>
			<stop  offset="0.5838" style="stop-color:#61225B"/>
			<stop  offset="0.8556" style="stop-color:#3D184C"/>
			<stop  offset="1" style="stop-color:#2F1446"/>
		</linearGradient>
		<polygon fill="url(#SVGID_1_)" points="166.067,119.519 144.064,143.868 117.729,132.732 139.943,109.484 		"/>
		<polygon fill="#E796C0" points="168.871,116.419 166.067,119.519 139.943,109.484 142.812,106.525 171.982,112.979 		"/>
		<polygon fill="#8E1D56" points="191.957,90.868 171.982,112.979 142.812,106.525 139.943,109.484 152.15,96.719 		"/>
		<polygon fill="#E8B0D0" points="199,62.203 191.957,90.868 152.15,96.719 164.465,64.781 170.377,59.506 		"/>
		<polygon fill="#2B1220" points="57.183,196.083 5.61,148.734 19.471,148.461 		"/>
		<polygon fill="#2F1446" points="199,62.203 170.377,59.506 175.994,54.491 		"/>
		<polygon fill="#8E1D56" points="199,62.203 175.994,54.491 180.617,47.157 198.642,56.699 		"/>
		<polygon fill="#70194F" points="112.359,138.351 57.183,196.083 19.471,148.461 142.909,41.397 164.465,64.781 152.15,96.719 
			139.943,109.484 117.729,132.732 114.731,135.408 111.776,138.048 		"/>
		<polygon fill="#E796C0" points="198.642,56.699 180.617,47.157 196.382,22.076 		"/>
		<polygon fill="#AE4B81" points="170.377,59.506 164.465,64.781 142.909,41.397 159.26,29.643 180.617,47.157 175.994,54.491 		"/>
		<polygon fill="#E8B0D0" points="196.382,22.076 180.617,47.157 159.26,29.643 193.49,5.024 		"/>
		<polygon fill="#2F1446" points="193.49,5.024 159.26,29.643 155.878,23.708 		"/>
		
			<linearGradient id="SVGID_2_" gradientUnits="userSpaceOnUse" x1="601.7236" y1="-852.126" x2="651.6455" y2="-852.126" gradientTransform="matrix(0.5988 0.5739 0.6641 -0.6929 344.698 -933.8488)">
			<stop  offset="0" style="stop-color:#C13D84"/>
			<stop  offset="0.0952" style="stop-color:#B8397E"/>
			<stop  offset="0.6785" style="stop-color:#84225C"/>
			<stop  offset="0.9643" style="stop-color:#70194F"/>
		</linearGradient>
		<polygon fill="url(#SVGID_2_)" points="193.49,5.024 155.878,23.708 135.8,33.682 114.63,27.463 187.361,0 		"/>
		<polygon fill="#E796C0" points="159.26,29.643 142.909,41.397 135.8,33.682 155.878,23.708 		"/>
		<polygon fill="#954372" points="142.909,41.397 19.471,148.461 24.599,123.799 41.069,110.453 47.583,105.172 69.608,87.331 
			105.36,58.353 112.174,52.831 135.8,33.682 		"/>
		<polygon fill="#2F1446" points="24.599,123.799 19.471,148.461 5.61,148.734 8.929,137.786 		"/>
		<polygon fill="#6B3252" points="135.8,33.682 112.174,52.831 111.865,52.547 107.94,32.821 114.63,27.463 		"/>
		<polygon fill="#E8B0D0" points="111.865,52.547 112.174,52.831 105.36,58.353 104.627,35.476 107.94,32.821 		"/>
		
			<linearGradient id="SVGID_3_" gradientUnits="userSpaceOnUse" x1="591.8193" y1="-934.3584" x2="619.4248" y2="-934.3584" gradientTransform="matrix(0.5988 0.5739 0.6641 -0.6929 344.698 -933.8488)">
			<stop  offset="0" style="stop-color:#C13D84"/>
			<stop  offset="0.2164" style="stop-color:#9B3274"/>
			<stop  offset="0.5838" style="stop-color:#61225B"/>
			<stop  offset="0.8556" style="stop-color:#3D184C"/>
			<stop  offset="1" style="stop-color:#2F1446"/>
		</linearGradient>
		<polygon fill="url(#SVGID_3_)" points="105.36,58.353 69.608,87.331 65.841,66.497 104.627,35.476 		"/>
		<polygon fill="#C75293" points="69.608,87.331 47.583,105.172 44.914,83.223 65.841,66.497 		"/>
		<polygon fill="#E8B0D0" points="47.583,105.172 41.069,110.453 40.774,86.917 		"/>
		<polygon fill="#8E1D56" points="41.069,110.453 24.599,123.799 7.778,119.629 11.149,110.242 40.558,86.713 40.774,86.917 		"/>
		<polygon fill="#2F1446" points="24.599,123.799 8.929,137.786 -1,130.662 7.778,119.629 		"/>
	</g>
</g>
</svg>
