<?xml version="1.0" encoding="utf-8"?>
<!-- Generator: Adobe Illustrator 16.0.4, SVG Export Plug-In . SVG Version: 6.00 Build 0)  -->
<!DOCTYPE svg PUBLIC "-//W3C//DTD SVG 1.1//EN" "http://www.w3.org/Graphics/SVG/1.1/DTD/svg11.dtd">
<svg version="1.1" id="Layer_1" xmlns="http://www.w3.org/2000/svg" xmlns:xlink="http://www.w3.org/1999/xlink" x="0px" y="0px"
	 width="200px" height="200px" viewBox="0 0 200 200" enable-background="new 0 0 200 200" xml:space="preserve">
<g id="XMLID_68_">
	<g>
		<g id="XMLID_69_">
			<polygon fill="#37305A" points="175.087,120.889 199.811,168.295 172.071,130.972 			"/>
			<polygon fill="#3E4B7A" points="172.071,130.972 199.811,168.295 159.553,172.821 			"/>
			<polygon fill="#473C58" points="199.811,168.295 133.32,198.779 145.033,187.186 159.553,172.821 			"/>
			<polygon fill="#F2F9FD" points="173.059,106.638 175.087,120.889 133.32,99.438 130.357,91.78 			"/>
			<polygon fill="#484A86" points="175.087,120.889 172.071,130.972 159.553,172.821 145.033,187.186 90.88,151.897 72.747,140.074 
				100.486,81.384 133.32,99.438 			"/>
			<polygon fill="#473C58" points="175.087,120.889 173.059,106.638 164.024,42.995 188.631,119.757 199.811,168.295 			"/>
			<polygon fill="#84B1D1" points="164.024,42.995 173.059,106.638 130.357,91.78 122.856,72.348 94.221,63.034 72.747,0.113 			"/>
			<polygon fill="#37305A" points="145.033,187.186 133.32,198.779 72.747,157.045 90.88,151.897 			"/>
			<polygon fill="#84B1D1" points="130.357,91.78 133.32,99.438 100.486,81.384 			"/>
			<polygon fill="#06080D" points="133.32,198.779 111.223,198.779 57.239,163.637 72.747,157.045 			"/>
			<polygon fill="#C1D3DD" points="122.856,72.348 130.357,91.78 100.486,81.384 94.221,63.034 			"/>
			<polygon fill="#3B4874" points="94.221,63.034 100.486,81.384 72.747,140.074 51.272,142.254 1.161,42.995 			"/>
			<polygon fill="#0098B4" points="72.747,0.113 94.221,63.034 1.161,42.995 			"/>
			<polygon fill="#0E1939" points="90.88,151.897 72.747,157.045 51.272,142.254 72.747,140.074 			"/>
			<polygon fill="#2C1530" points="72.747,157.045 57.239,163.637 28.004,144.6 51.272,142.254 			"/>
			<polygon fill="#050303" points="1.161,42.995 51.272,142.254 28.004,144.6 			"/>
		</g>
	</g>
</g>
</svg>
