<?xml version="1.0" encoding="utf-8"?>
<!-- Generator: Adobe Illustrator 16.0.4, SVG Export Plug-In . SVG Version: 6.00 Build 0)  -->
<!DOCTYPE svg PUBLIC "-//W3C//DTD SVG 1.1//EN" "http://www.w3.org/Graphics/SVG/1.1/DTD/svg11.dtd">
<svg version="1.1" id="Layer_1" xmlns="http://www.w3.org/2000/svg" xmlns:xlink="http://www.w3.org/1999/xlink" x="0px" y="0px"
	 width="200px" height="200px" viewBox="0 0 200 200" enable-background="new 0 0 200 200" xml:space="preserve">
<g id="XMLID_96_">
	<g id="XMLID_97_">
		<g>
			
				<linearGradient id="SVGID_1_" gradientUnits="userSpaceOnUse" x1="2190.4375" y1="-2391.1841" x2="1985.9685" y2="-2275.8821" gradientTransform="matrix(-0.455 -0.8905 0.8905 -0.455 3175.9507 887.6346)">
				<stop  offset="0" style="stop-color:#C13D84"/>
				<stop  offset="0.2164" style="stop-color:#9B3274"/>
				<stop  offset="0.5838" style="stop-color:#61225B"/>
				<stop  offset="0.8556" style="stop-color:#3D184C"/>
				<stop  offset="1" style="stop-color:#2F1446"/>
			</linearGradient>
			<polygon fill="url(#SVGID_1_)" points="34.705,68.52 122.858,0 149.607,5.815 134.834,38.623 126.678,30.896 25.01,93.745 			"/>
			<polygon fill="#2B1220" points="154.416,0.012 176.045,2.792 160.023,13.666 			"/>
			<polygon fill="#954372" points="134.834,38.623 149.607,5.815 160.023,13.666 153.532,47.752 60.314,103.909 38.26,104.148 
				32.104,99.324 			"/>
			<polygon fill="#E796C0" points="25,93.75 25.01,93.745 126.678,30.896 134.834,38.623 32.104,99.324 			"/>
			<polygon fill="#954372" points="15.429,118.659 25,93.75 32.104,99.324 38.26,104.148 			"/>
			<polygon fill="#4E253C" points="160.023,13.666 176.045,2.792 175.701,16.791 181.196,30.171 176.29,37.087 164.295,56.419 
				169.071,68.049 173.185,95.607 157.459,57.312 153.532,47.752 			"/>
			<polygon fill="#2B1220" points="176.045,2.792 200,22.017 191.881,91.245 173.185,95.607 169.071,68.049 164.295,56.419 
				176.29,37.087 181.196,30.171 175.701,16.791 			"/>
			<polygon fill="#954372" points="15.429,118.659 38.26,104.148 60.314,103.909 72.011,137.621 78.342,155.889 50.254,191.65 
				43.705,200 0,183.571 			"/>
			<polygon fill="#70194F" points="60.314,103.909 153.532,47.752 157.459,57.312 150.177,88.12 73.772,136.682 72.011,137.621 			
				"/>
			<polygon fill="#4E253C" points="157.459,57.312 173.185,95.607 160.449,103.701 150.177,88.12 			"/>
			
				<linearGradient id="SVGID_2_" gradientUnits="userSpaceOnUse" x1="2061" y1="-2377.0083" x2="2088.6631" y2="-2377.0083" gradientTransform="matrix(-0.455 -0.8905 0.8905 -0.455 3175.9507 887.6346)">
				<stop  offset="0" style="stop-color:#C13D84"/>
				<stop  offset="0.2164" style="stop-color:#9B3274"/>
				<stop  offset="0.5838" style="stop-color:#61225B"/>
				<stop  offset="0.8556" style="stop-color:#3D184C"/>
				<stop  offset="1" style="stop-color:#2F1446"/>
			</linearGradient>
			<polygon fill="url(#SVGID_2_)" points="72.011,137.621 73.772,136.682 150.177,88.12 160.449,103.701 78.342,155.889 			"/>
			
				<linearGradient id="SVGID_3_" gradientUnits="userSpaceOnUse" x1="2041.9346" y1="-2380.8213" x2="2071.5273" y2="-2380.8213" gradientTransform="matrix(-0.455 -0.8905 0.8905 -0.455 3175.9507 887.6346)">
				<stop  offset="0" style="stop-color:#8E1D56"/>
				<stop  offset="1" style="stop-color:#270C3D"/>
			</linearGradient>
			<polygon fill="url(#SVGID_3_)" points="160.449,103.701 173.185,95.607 191.881,91.245 188.394,103.848 50.254,191.65 
				78.342,155.889 			"/>
		</g>
	</g>
</g>
</svg>
