<?xml version="1.0" encoding="utf-8"?>
<!-- Generator: Adobe Illustrator 16.0.4, SVG Export Plug-In . SVG Version: 6.00 Build 0)  -->
<!DOCTYPE svg PUBLIC "-//W3C//DTD SVG 1.1//EN" "http://www.w3.org/Graphics/SVG/1.1/DTD/svg11.dtd">
<svg version="1.1" id="Layer_1" xmlns="http://www.w3.org/2000/svg" xmlns:xlink="http://www.w3.org/1999/xlink" x="0px" y="0px"
	 width="200px" height="200px" viewBox="0 0 200 200" enable-background="new 0 0 200 200" xml:space="preserve">
<g id="XMLID_71_">
	<g id="XMLID_72_">
		<polygon fill="#42A89D" points="177.02,84.415 197.173,100.137 200,129.425 189.09,120.672 		"/>
		<polygon fill="#255B5D" points="174.17,82.192 177.02,84.415 189.09,120.672 164.265,100.74 		"/>
		<polygon fill="#90D8F7" points="132.53,49.708 136.72,52.974 138.276,78.376 137.3,79.104 131.526,74.479 		"/>
		<polygon fill="#42A89D" points="86.141,13.517 132.53,49.708 131.526,74.479 80.378,33.43 70.598,25.578 		"/>
		<polygon fill="#90D8F7" points="0,0 86.141,13.517 70.598,25.578 		"/>
		<polygon fill="#1E817C" points="138.276,78.376 136.72,52.974 174.17,82.192 164.265,100.74 146.216,86.265 137.3,79.104 		"/>
		<polygon fill="#0C333C" points="146.216,86.265 164.265,100.74 155.48,158.97 155.396,159.078 145.219,150.964 145.737,86.852 		
			"/>
		<polygon fill="#0B1A1B" points="189.09,120.672 200,129.425 197.604,161.458 197.137,167.607 195.871,184.568 195.394,190.912 
			181.062,179.511 		"/>
		
			<linearGradient id="SVGID_1_" gradientUnits="userSpaceOnUse" x1="4.147" y1="-184.8789" x2="51.0352" y2="-184.8789" gradientTransform="matrix(0.6835 -0.8754 -0.9075 -0.7086 -112.9124 -45.7986)">
			<stop  offset="0" style="stop-color:#1A647B"/>
			<stop  offset="1" style="stop-color:#0C333C"/>
		</linearGradient>
		<path fill="url(#SVGID_1_)" d="M80.378,33.43c0,0,1.681,20.56-4.712,25.601c-6.391,5.039,1.115,15.025,4.716,23.73
			c3.6,8.706-3.978,13.421-3.978,13.421l-0.012-0.009L39.563,66.84l31.035-41.262L80.378,33.43z"/>
		<path fill="#1E817C" d="M76.405,96.182c0,0,7.578-4.714,3.978-13.421c-3.601-8.705-11.107-18.691-4.716-23.73
			c6.393-5.041,4.712-25.601,4.712-25.601l51.148,41.048L88.71,105.784l-0.179,0.047L76.405,96.182z"/>
		
			<linearGradient id="SVGID_2_" gradientUnits="userSpaceOnUse" x1="-21.8345" y1="-136.7412" x2="30.0664" y2="-136.7412" gradientTransform="matrix(0.6835 -0.8754 -0.9075 -0.7086 -112.9124 -45.7986)">
			<stop  offset="0" style="stop-color:#90D8F7"/>
			<stop  offset="1" style="stop-color:#51C0C4"/>
		</linearGradient>
		<path fill="url(#SVGID_2_)" d="M39.318,66.426c0.104,0.185,0.182,0.312,0.208,0.37l0.037,0.044L27.988,94.988L0,0
			c0.014,0.027,0.028,0.054,0.052,0.091C1.36,2.517,20.812,35.312,31.938,54.002c0.389,0.661,0.774,1.306,1.135,1.914
			c0.736,1.242,1.422,2.413,2.065,3.479l1.392,2.337l1.715,2.882l0.039,0.064c0.016,0.047,0.03,0.076,0.064,0.101l0.697,1.18
			c0.105,0.184,0.185,0.333,0.262,0.46L39.318,66.426z"/>
		<path fill="#51C0C4" d="M39.526,66.797c-0.027-0.057-0.105-0.186-0.208-0.37l-0.011-0.008c-0.078-0.128-0.156-0.276-0.262-0.46
			l-0.697-1.18c-0.034-0.025-0.047-0.053-0.064-0.101l-0.039-0.064l-1.715-2.882l-1.392-2.337c-0.644-1.066-1.329-2.237-2.065-3.479
			l-1.135-1.914L0.052,0.091C0.029,0.054,0.014,0.027,0,0l70.598,25.578L39.563,66.84L39.526,66.797z"/>
		<polygon fill="#42A89D" points="76.393,96.172 76.405,96.182 88.531,105.831 54.603,115.751 27.988,94.988 39.563,66.84 		"/>
		<polygon fill="#90D8F7" points="88.71,105.784 131.526,74.479 137.3,79.104 94.799,110.531 94.502,110.592 88.531,105.831 		"/>
		
			<linearGradient id="SVGID_3_" gradientUnits="userSpaceOnUse" x1="3.4019" y1="-253.731" x2="50.0107" y2="-253.731" gradientTransform="matrix(0.6835 -0.8754 -0.9075 -0.7086 -112.9124 -45.7986)">
			<stop  offset="0" style="stop-color:#1A647B"/>
			<stop  offset="1" style="stop-color:#0C333C"/>
		</linearGradient>
		<polygon fill="url(#SVGID_3_)" points="94.799,110.531 137.3,79.104 146.216,86.265 145.737,86.852 145.219,150.964 
			125.593,135.346 94.502,110.592 		"/>
		<polygon fill="#1E817C" points="94.502,110.592 125.593,135.346 91.106,144.228 58.028,118.424 		"/>
		
			<linearGradient id="SVGID_4_" gradientUnits="userSpaceOnUse" x1="-21.8032" y1="-281.4556" x2="3.6104" y2="-281.4556" gradientTransform="matrix(0.6835 -0.8754 -0.9075 -0.7086 -112.9124 -45.7986)">
			<stop  offset="0" style="stop-color:#1A647B"/>
			<stop  offset="1" style="stop-color:#0C333C"/>
		</linearGradient>
		<polygon fill="url(#SVGID_4_)" points="125.593,135.346 145.219,150.964 155.396,159.078 181.062,179.511 150.807,190.806 
			91.106,144.228 		"/>
		<polygon fill="#144445" points="155.48,158.97 164.265,100.74 189.09,120.672 181.062,179.511 155.396,159.078 		"/>
		<polygon fill="#0C333C" points="181.062,179.511 195.394,190.912 162.596,200 150.807,190.806 		"/>
		<polygon fill="#90D8F7" points="54.603,115.751 88.531,105.831 94.502,110.592 58.028,118.424 		"/>
	</g>
</g>
</svg>
