<?xml version="1.0" encoding="utf-8"?>
<!-- Generator: Adobe Illustrator 16.0.4, SVG Export Plug-In . SVG Version: 6.00 Build 0)  -->
<!DOCTYPE svg PUBLIC "-//W3C//DTD SVG 1.1//EN" "http://www.w3.org/Graphics/SVG/1.1/DTD/svg11.dtd">
<svg version="1.1" id="Layer_1" xmlns="http://www.w3.org/2000/svg" xmlns:xlink="http://www.w3.org/1999/xlink" x="0px" y="0px"
	 width="200px" height="200px" viewBox="0 0 200 200" enable-background="new 0 0 200 200" xml:space="preserve">
<g id="XMLID_79_">
	<g id="XMLID_80_">
		<polygon fill="#8787BA" points="140.876,-1.416 129.715,39.278 128.68,22.39 		"/>
		<polygon fill="#8787BA" points="199.138,4.259 186.009,72.961 174.969,54.767 		"/>
		<polygon fill="#422A59" points="199.138,4.259 174.969,54.767 163.362,61.811 148.414,48.167 150.919,28.574 		"/>
		<polygon fill="#D7EFF7" points="199.138,4.259 150.919,28.574 129.715,39.278 140.876,-1.416 		"/>
		<polygon fill="#46335F" points="174.969,54.767 186.009,72.961 161.176,77.634 163.362,61.811 		"/>
		<polygon fill="#D7EFF7" points="140.876,-1.416 128.68,22.39 29.192,133.641 17.69,132.418 		"/>
		<polygon fill="#1A1939" points="186.009,72.961 64.156,198.863 47.804,189.646 161.176,77.634 		"/>
		<polygon fill="#646EAD" points="150.919,28.574 148.414,48.167 117.346,67.019 129.715,39.278 		"/>
		<polygon fill="#639CC7" points="148.414,48.167 163.362,61.811 161.176,77.634 47.804,189.646 22.445,157.984 117.346,67.019 		
			"/>
		<polygon fill="#9CDAED" points="128.68,22.39 129.715,39.278 117.346,67.019 22.445,157.984 29.192,133.641 		"/>
		<polygon fill="#646EAD" points="29.192,133.641 22.445,157.984 7.597,195.989 17.69,132.418 		"/>
		<polygon fill="#1A0E1D" points="47.804,189.646 64.156,198.863 7.597,195.989 		"/>
		<polygon fill="#46335F" points="22.445,157.984 47.804,189.646 7.597,195.989 		"/>
	</g>
</g>
</svg>
