<?xml version="1.0" encoding="utf-8"?>
<!-- Generator: Adobe Illustrator 16.0.4, SVG Export Plug-In . SVG Version: 6.00 Build 0)  -->
<!DOCTYPE svg PUBLIC "-//W3C//DTD SVG 1.1//EN" "http://www.w3.org/Graphics/SVG/1.1/DTD/svg11.dtd">
<svg version="1.1" id="Layer_1" xmlns="http://www.w3.org/2000/svg" xmlns:xlink="http://www.w3.org/1999/xlink" x="0px" y="0px"
	 width="200px" height="200px" viewBox="0 0 200 200" enable-background="new 0 0 200 200" xml:space="preserve">
<g id="XMLID_68_">
	<g>
		<g id="XMLID_69_">
			<polygon fill="#37305A" points="176.27,120.366 201.161,168.09 173.232,130.518 			"/>
			<polygon fill="#3E4B7A" points="173.232,130.518 201.161,168.09 160.63,172.646 			"/>
			<polygon fill="#473C58" points="201.161,168.09 134.219,198.779 146.012,187.107 160.63,172.646 			"/>
			<polygon fill="#F2F9FD" points="174.228,106.021 176.27,120.366 134.219,98.771 131.235,91.062 			"/>
			<polygon fill="#484A86" points="176.27,120.366 173.232,130.518 160.63,172.646 146.012,187.107 91.49,151.582 73.234,139.68 
				101.161,80.596 134.219,98.771 			"/>
			<polygon fill="#473C58" points="176.27,120.366 174.228,106.021 165.131,41.95 189.905,119.227 201.161,168.09 			"/>
			<polygon fill="#84B1D1" points="165.131,41.95 174.228,106.021 131.235,91.062 123.683,71.5 94.854,62.123 73.234,-1.221 			"/>
			<polygon fill="#37305A" points="146.012,187.107 134.219,198.779 73.234,156.765 91.49,151.582 			"/>
			<polygon fill="#84B1D1" points="131.235,91.062 134.219,98.771 101.161,80.596 			"/>
			<polygon fill="#06080D" points="134.219,198.779 111.971,198.779 57.62,163.4 73.234,156.765 			"/>
			<polygon fill="#C1D3DD" points="123.683,71.5 131.235,91.062 101.161,80.596 94.854,62.123 			"/>
			<polygon fill="#3B4874" points="94.854,62.123 101.161,80.596 73.234,139.68 51.613,141.874 1.161,41.95 			"/>
			<polygon fill="#0098B4" points="73.234,-1.221 94.854,62.123 1.161,41.95 			"/>
			<polygon fill="#0E1939" points="91.49,151.582 73.234,156.765 51.613,141.874 73.234,139.68 			"/>
			<polygon fill="#2C1530" points="73.234,156.765 57.62,163.4 28.187,144.236 51.613,141.874 			"/>
			<polygon fill="#050303" points="1.161,41.95 51.613,141.874 28.187,144.236 			"/>
		</g>
	</g>
</g>
</svg>
