<?xml version="1.0" encoding="utf-8"?>
<!-- Generator: Adobe Illustrator 16.0.4, SVG Export Plug-In . SVG Version: 6.00 Build 0)  -->
<!DOCTYPE svg PUBLIC "-//W3C//DTD SVG 1.1//EN" "http://www.w3.org/Graphics/SVG/1.1/DTD/svg11.dtd">
<svg version="1.1" id="Layer_1" xmlns="http://www.w3.org/2000/svg" xmlns:xlink="http://www.w3.org/1999/xlink" x="0px" y="0px"
	 width="200px" height="200px" viewBox="0 0 200 200" enable-background="new 0 0 200 200" xml:space="preserve">
<g>
	<g id="XMLID_89_">
		<polygon fill="#BEE7FA" points="100.137,28.562 116.618,30.213 126.25,51.678 102.903,52.079 		"/>
		<polygon fill="#51C0C4" points="106.382,8.767 197.677,105.325 193.688,135.231 126.25,51.678 116.618,30.213 		"/>
		
			<linearGradient id="SVGID_1_" gradientUnits="userSpaceOnUse" x1="-43.4766" y1="-534.4561" x2="8.186" y2="-534.4561" gradientTransform="matrix(0.7961 -0.7527 0.6877 0.7273 453.0938 388.5098)">
			<stop  offset="0" style="stop-color:#90D8F7"/>
			<stop  offset="1" style="stop-color:#51C0C4"/>
		</linearGradient>
		<polygon fill="url(#SVGID_1_)" points="21.125,0.984 106.382,8.767 116.618,30.213 100.137,28.562 		"/>
		
			<linearGradient id="SVGID_2_" gradientUnits="userSpaceOnUse" x1="-6.7964" y1="-463.2656" x2="-87.697" y2="-375.3303" gradientTransform="matrix(0.7961 -0.7527 0.6877 0.7273 453.0938 388.5098)">
			<stop  offset="0" style="stop-color:#90D8F7"/>
			<stop  offset="1" style="stop-color:#51C0C4"/>
		</linearGradient>
		<polygon fill="url(#SVGID_2_)" points="126.25,51.678 193.688,135.231 140.481,179.983 60.835,95.747 102.903,52.079 		"/>
		<path fill="#42A89D" d="M21.125,0.984l79.011,27.579l2.767,23.517L60.835,95.747L32.167,82.816l-0.116-0.907
			c-0.049-0.295-0.091-0.657-0.147-1.089l-0.044-0.33C30.146,67.365,21.73,3.173,21.132,1.027L21.125,0.984z"/>
		<polygon fill="#144445" points="193.688,135.231 195.19,200.517 140.481,179.983 		"/>
		<polygon fill="#1A647B" points="21.125,0.984 21.132,1.027 31.859,80.49 31.904,80.82 32.051,81.909 32.167,82.816 1.064,91.115 
			11.132,14.873 		"/>
		<polygon fill="#0C333C" points="140.481,179.983 195.19,200.517 82.1,176.815 		"/>
		
			<linearGradient id="SVGID_3_" gradientUnits="userSpaceOnUse" x1="-113.3022" y1="-446.0718" x2="-76.5659" y2="-446.0718" gradientTransform="matrix(0.7961 -0.7527 0.6877 0.7273 453.0938 388.5098)">
			<stop  offset="0" style="stop-color:#1A647B"/>
			<stop  offset="1" style="stop-color:#0C333C"/>
		</linearGradient>
		<polygon fill="url(#SVGID_3_)" points="60.835,95.747 140.481,179.983 82.1,176.815 1.064,91.115 32.167,82.816 		"/>
	</g>
</g>
</svg>
